<svg xmlns="http://www.w3.org/2000/svg" xml:space="preserve" style="enable-background:new 0 0 1000 1000" viewBox="0 0 1000 1000"><path d="M927.15 271.11 800.82 144.78l-.06-.06c-14.88-14.88-38.98-14.91-53.9-.08l-.04.04c-.02.01-.03.03-.05.04L519.19 372.3c-108.22-81.84-263.37-73.52-361.98 25.08-107.76 107.77-107.76 283.11 0 390.87 52.21 52.2 121.61 80.95 195.44 80.95s143.23-28.75 195.43-80.95c14.91-14.91 14.91-39.08 0-53.98-14.91-14.9-39.07-14.9-53.98 0-37.78 37.78-88.02 58.6-141.45 58.6-53.44 0-103.67-20.81-141.46-58.6-78-78-78-204.91 0-282.91 68.77-68.76 175.54-76.86 253.3-24.38L325.66 565.83c-7.45 7.46-11.18 17.22-11.18 26.99s3.73 19.54 11.18 26.99c7.46 7.45 17.22 11.18 26.99 11.18s19.54-3.73 26.99-11.18l246.94-246.95 76.15 76.15c7.46 7.45 17.22 11.18 26.99 11.18s19.54-3.73 26.99-11.18c14.91-14.91 14.91-39.08 0-53.98l-76.15-76.15 93.19-93.2 99.41 99.41c14.91 14.9 39.07 14.91 53.98 0 14.92-14.9 14.92-39.07.01-53.98z" style="fill:#fff"/></svg>