<?xml version="1.0" encoding="utf-8"?>
<!-- Generator: Adobe Illustrator 26.3.1, SVG Export Plug-In . SVG Version: 6.00 Build 0)  -->
<svg version="1.1" id="Слой_1" xmlns="http://www.w3.org/2000/svg" xmlns:xlink="http://www.w3.org/1999/xlink" x="0px" y="0px"
	 viewBox="0 0 30 30" style="enable-background:new 0 0 30 30;" xml:space="preserve">
<style type="text/css">
	.st0{fill:#FFFFFF;}
</style>
<g>
	<path class="st0" d="M11.3,14L11.3,14c-1.1,0-2.1,0.9-2.1,2.1s0.9,2.1,2.1,2.1s2.1-0.9,2.1-2.1C13.4,15,12.5,14,11.3,14L11.3,14z"
		/>
	<path class="st0" d="M15,0C6.7,0,0,6.7,0,15s6.7,15,15,15s15-6.7,15-15S23.3,0,15,0z M20.5,22.9c0,0-0.8-0.8-1.3-1.6
		c2.6-0.7,3.6-2.2,3.6-2.2c-2.7,1.7-5.3,2.3-7.9,2.2c-2.6,0.1-5.1-0.6-7.9-2.2c0,0,1,1.5,3.6,2.2c-0.5,0.7-1.3,1.6-1.3,1.6
		c-4.5-0.1-6.2-2.9-6.3-2.7c0-6.1,3-11.1,3-11.1c2.7-1.9,5.1-2,5.6-2L12,7.4C8.6,8.3,7,9.8,7,9.8c2.9-1.4,5.7-1.9,8-1.9
		c2.4,0,5.1,0.5,8,1.9c0,0-1.6-1.5-5-2.4l0.3-0.3c0.5,0,3,0.1,5.6,2c0,0,3,5,3,11.1C26.8,20.1,25,22.8,20.5,22.9z"/>
	<path class="st0" d="M18.7,14L18.7,14c-1.1,0-2.1,1-2.1,2.1c0,1.2,0.9,2.1,2.1,2.1s2.1-0.9,2.1-2.1S19.8,14,18.7,14L18.7,14z"/>
</g>
</svg>
